# xmcd CD database file
#
# Track frame offsets:
#	150
#	23456
#	39036
#	56440
#	66847
#	88877
#	102253
#	114007
#	135927
#	153726
#
# Disc length: 2313 seconds
#
# Revision: 0
# Processed by: cddbd v1.5.2PL0 Copyright (c) Steve Scherf et al.
# Submitted via: CDex 1.51
#
DISCID=6e09070a
DTITLE=Bob Anderson - To Love and Be Loved
DYEAR=1900
DGENRE=Jazz
TTITLE0=To Love And Be Loved
TTITLE1=I Won't Send Roses
TTITLE2=I Don't Know A Day I Did Not Love You
TTITLE3=The Touch Of Your Lips
TTITLE4=I Still Miss You
TTITLE5=One At A Time
TTITLE6=I'll Close My Eyes
TTITLE7=First Time Love
TTITLE8=You Don't Know What Love Is
TTITLE9=All I Lost Is You
EXTD=
EXTT0=
EXTT1=
EXTT2=
EXTT3=
EXTT4=
EXTT5=
EXTT6=
EXTT7=
EXTT8=
EXTT9=
PLAYORDER=
